{"asset":{"version":"2.0","generator":"Digital Twin Workbench"},"scene":0,"scenes":[{"name":"Factory Campus","nodes":[0,1,2,3,4,5,6,7,8,9,10,11]}],"nodes":[{"name":"Main hall","translation":[0,1.5,0],"scale":[8,3,5],"mesh":0},{"name":"Roof monitor","translation":[0,3.35,0],"scale":[4.5,0.7,2],"mesh":1},{"name":"West annex","translation":[-5,0.9,0.8],"scale":[2,1.8,3.4],"mesh":2},{"name":"East annex","translation":[5,1.1,-0.5],"scale":[2,2.2,4],"mesh":2},{"name":"Loading bay A","translation":[-2.8,0.5,3.4],"scale":[2,1,1.7],"mesh":1},{"name":"Loading bay B","translation":[0,0.5,3.4],"scale":[2,1,1.7],"mesh":1},{"name":"Loading bay C","translation":[2.8,0.5,3.4],"scale":[2,1,1.7],"mesh":1},{"name":"Utility block","translation":[4.7,0.65,3.1],"scale":[2.4,1.3,1.8],"mesh":0},{"name":"Stack A","translation":[4.2,3.3,2.6],"scale":[0.45,4.2,0.45],"mesh":3},{"name":"Stack B","translation":[5.2,2.7,2.6],"scale":[0.45,3,0.45],"mesh":3},{"name":"Office","translation":[-4.6,1.1,-3.1],"scale":[3.5,2.2,2.2],"mesh":1},{"name":"Connector","translation":[-2.2,0.65,-2.2],"scale":[1.6,1.3,1.4],"mesh":2}],"meshes":[{"name":"Structure 1","primitives":[{"attributes":{"POSITION":0,"NORMAL":1},"indices":2,"material":0}]},{"name":"Structure 2","primitives":[{"attributes":{"POSITION":0,"NORMAL":1},"indices":2,"material":1}]},{"name":"Structure 3","primitives":[{"attributes":{"POSITION":0,"NORMAL":1},"indices":2,"material":2}]},{"name":"Structure 4","primitives":[{"attributes":{"POSITION":0,"NORMAL":1},"indices":2,"material":3}]}],"materials":[{"name":"Material 1","pbrMetallicRoughness":{"baseColorFactor":[0.22,0.27,0.25,1],"metallicFactor":0.05,"roughnessFactor":0.72}},{"name":"Material 2","pbrMetallicRoughness":{"baseColorFactor":[0.75,0.8,0.77,1],"metallicFactor":0.05,"roughnessFactor":0.72}},{"name":"Material 3","pbrMetallicRoughness":{"baseColorFactor":[0.55,0.62,0.58,1],"metallicFactor":0.05,"roughnessFactor":0.72}},{"name":"Material 4","pbrMetallicRoughness":{"baseColorFactor":[0.83,1,0.31,1],"metallicFactor":0.05,"roughnessFactor":0.72}}],"accessors":[{"bufferView":0,"componentType":5126,"count":24,"type":"VEC3","min":[-0.5,-0.5,-0.5],"max":[0.5,0.5,0.5]},{"bufferView":1,"componentType":5126,"count":24,"type":"VEC3"},{"bufferView":2,"componentType":5123,"count":36,"type":"SCALAR"}],"bufferViews":[{"buffer":0,"byteOffset":0,"byteLength":288,"target":34962},{"buffer":0,"byteOffset":288,"byteLength":288,"target":34962},{"buffer":0,"byteOffset":576,"byteLength":72,"target":34963}],"buffers":[{"byteLength":648,"uri":"data:application/octet-stream;base64,"}]}